# xmcd
#
# Track frame offsets: 
#        150
#        14935
#        38170
#        52022
#        70407
#        85287
#        93622
#        109254
#        121602
#        135100
#        143822
#        162634
#        176895
#
# Disc length: 2433 seconds
#
# Revision: 4
# Processed by: cddbd v1.5.2PL0 Copyright (c) Steve Scherf et al.
# Submitted via: ExactAudioCopy v0.99pb4
#
DISCID=bc097f0d
DTITLE=Harry Manx - Dog My Cat
DYEAR=2001
DGENRE=Blues
TTITLE0=Can't Be Satisfied
TTITLE1=Bring That Thing
TTITLE2=Good Morning Stranger
TTITLE3=Reuben's Train
TTITLE4=Lay Down My Worries
TTITLE5=Rag Bihag
TTITLE6=Sunday Morning Ascension
TTITLE7=Baby Please Don't Go
TTITLE8=Brick And Stone
TTITLE9=Song For William
TTITLE10=Love Ain't No Game
TTITLE11=Shame Shame Shame
TTITLE12=Rag Jog
EXTD=
EXTT0=
EXTT1=
EXTT2=
EXTT3=
EXTT4=
EXTT5=
EXTT6=
EXTT7=
EXTT8=
EXTT9=
EXTT10=
EXTT11=
EXTT12=
PLAYORDER=
